<svg width="112" height="22" viewBox="0 0 112 22" fill="none" xmlns="http://www.w3.org/2000/svg">
<path d="M9.16667 16.8333C12.8486 16.8333 15.8333 13.8486 15.8333 10.1667C15.8333 6.48477 12.8486 3.5 9.16667 3.5C5.48477 3.5 2.5 6.48477 2.5 10.1667C2.5 13.8486 5.48477 16.8333 9.16667 16.8333Z" stroke="#1F2020" stroke-width="1.4" stroke-linecap="round" stroke-linejoin="round"/>
<path d="M17.5 18.5L13.875 14.875" stroke="#1F2020" stroke-width="1.4" stroke-linecap="round" stroke-linejoin="round"/>
<g clip-path="url(#clip0_8_26)">
<circle cx="55" cy="23" r="8.4" stroke="black" stroke-width="1.2"/>
<circle cx="55" cy="7" r="3.4" stroke="black" stroke-width="1.2"/>
</g>
<path d="M101.001 19C100.745 19.0001 100.498 18.9074 100.305 18.739C99.5797 18.1047 98.8767 17.5067 98.2582 16.9802C96.6569 15.7048 95.1613 14.3023 93.7858 12.7865C92.6769 11.5918 92.0423 10.0341 92.0009 8.4053C91.9762 6.99164 92.486 5.62067 93.4285 4.56595C93.8858 4.0681 94.4426 3.67154 95.0628 3.40184C95.6829 3.13214 96.3528 2.9953 97.0292 3.00012C98.0555 2.99541 99.053 3.3392 99.8581 3.97514C100.294 4.31625 100.679 4.71815 101.001 5.16854C101.323 4.71841 101.708 4.31682 102.145 3.97605C102.949 3.34036 103.945 2.99628 104.971 3.00012C105.647 2.9953 106.317 3.13214 106.937 3.40184C107.557 3.67154 108.114 4.0681 108.572 4.56595C109.514 5.62067 110.024 6.99164 109.999 8.4053C109.959 10.0337 109.325 11.5915 108.217 12.7865C106.843 14.3013 105.348 15.7028 103.748 16.9775C103.129 17.5049 102.427 18.1029 101.697 18.7399C101.504 18.9081 101.257 19.0005 101.001 19V19Z" stroke="black" stroke-width="1.2"/>
<defs>
<clipPath id="clip0_8_26">
<rect width="22" height="22" fill="white" transform="translate(44)"/>
</clipPath>
</defs>
</svg>
